<?xml version="1.0" standalone="no"?>
<!DOCTYPE svg PUBLIC "-//W3C//DTD SVG 20010904//EN"
 "http://www.w3.org/TR/2001/REC-SVG-20010904/DTD/svg10.dtd">
<svg version="1.0" xmlns="http://www.w3.org/2000/svg"
 width="900.000000pt" height="512.000000pt" viewBox="0 0 900.000000 512.000000"
 preserveAspectRatio="xMidYMid meet">

<g transform="translate(0.000000,512.000000) scale(0.100000,-0.100000)"
fill="#000000" stroke="none">
<path d="M1174 4883 c-4 -13 -10 -23 -14 -23 -4 0 -7 -11 -7 -25 0 -15 5 -25
13 -25 8 0 14 -7 14 -15 0 -8 5 -15 10 -15 6 0 10 5 10 11 0 6 9 8 20 4 14 -5
20 -2 20 9 0 9 7 16 16 16 13 0 14 3 4 15 -6 8 -9 19 -5 25 3 5 -1 10 -9 10
-9 0 -16 7 -16 15 0 18 -16 20 -26 4 -4 -8 -9 -7 -15 2 -7 11 -10 9 -15 -8z"/>
<path d="M1696 4854 c-3 -9 -6 -19 -6 -23 0 -9 42 -8 57 2 6 4 14 3 18 -3 12
-20 35 -10 35 16 0 14 -4 23 -10 19 -5 -3 -6 -13 -3 -23 6 -16 6 -16 -11 1
-20 20 -36 22 -36 5 -1 -8 -6 -6 -14 5 -16 21 -22 21 -30 1z"/>
<path d="M1855 4861 c-3 -7 -15 -9 -26 -6 -15 5 -19 1 -19 -14 0 -19 5 -21 60
-19 48 2 60 6 60 19 0 12 -7 15 -27 13 -15 -1 -30 2 -34 8 -4 7 -9 6 -14 -1z"/>
<path d="M1970 4849 c0 -11 -4 -17 -10 -14 -5 3 -10 1 -10 -4 0 -6 7 -11 15
-11 9 0 15 9 15 25 0 14 -2 25 -5 25 -3 0 -5 -9 -5 -21z"/>
<path d="M2183 4862 c-7 -4 -53 -7 -103 -7 -81 1 -90 0 -90 -17 0 -11 7 -18
20 -18 11 0 20 5 20 12 0 9 3 9 12 0 16 -16 55 -15 61 1 4 9 7 9 14 0 11 -15
73 -14 92 1 11 8 13 8 7 -1 -4 -7 -3 -13 3 -13 15 0 21 14 11 29 -4 8 -12 11
-18 7 -6 -3 -12 -2 -14 4 -1 5 -8 6 -15 2z"/>
<path d="M2532 4848 c-2 -10 -8 -16 -11 -13 -4 2 -8 -9 -8 -25 0 -18 6 -30 14
-30 7 0 13 -4 13 -8 0 -5 14 -9 30 -9 18 0 30 6 30 14 0 7 7 13 16 13 13 0 14
3 5 14 -6 7 -9 21 -5 30 4 11 1 16 -10 16 -9 0 -16 4 -16 9 0 17 -53 6 -58
-11z"/>
<path d="M718 4840 c-18 -21 -19 -70 -3 -70 7 0 15 -6 18 -12 3 -10 7 -10 19
-1 11 10 17 10 26 1 9 -9 12 -8 12 5 0 9 7 17 15 17 17 0 20 16 5 25 -5 3 -7
12 -3 20 3 9 -1 15 -11 15 -9 0 -16 4 -16 9 0 14 -49 7 -62 -9z"/>
<path d="M114 4823 c-4 -13 -10 -23 -14 -23 -4 0 -7 -11 -6 -25 0 -14 7 -25
14 -25 6 0 12 -7 12 -15 0 -17 16 -20 25 -5 5 8 11 7 21 -1 11 -9 14 -7 14 10
0 13 6 21 16 21 13 0 14 3 4 15 -6 8 -9 19 -5 25 3 5 -1 10 -9 10 -9 0 -16 7
-16 15 0 18 -16 20 -23 3 -4 -10 -8 -9 -16 2 -9 13 -12 12 -17 -7z"/>
<path d="M1040 4749 c-168 -9 -376 -20 -463 -24 l-157 -7 0 -294 0 -294 -144
0 -144 0 -4 63 c-3 34 -1 64 4 65 12 5 10 70 -3 74 -14 5 -35 268 -24 295 4
10 8 28 9 41 1 19 -3 22 -32 22 l-34 0 6 -62 c3 -35 20 -245 36 -468 77 -1049
134 -1829 168 -2297 21 -282 42 -516 46 -520 6 -6 8327 -6 8332 0 1 1 7 43 13
92 26 212 133 1113 236 1980 24 209 47 396 51 416 l5 36 -110 18 c-61 10 -111
21 -111 26 0 14 22 22 29 10 5 -7 13 -4 25 10 12 15 14 24 7 33 -7 9 -7 16 1
24 9 9 8 12 -4 12 -9 0 -19 8 -22 17 -5 12 -10 13 -18 5 -6 -6 -17 -8 -24 -5
-8 3 -14 -1 -14 -11 0 -9 -7 -16 -16 -16 -14 0 -14 -3 -4 -15 10 -12 10 -18
-1 -32 -13 -15 -12 -16 9 -11 15 4 22 2 22 -8 0 -17 -28 -18 -90 -3 -42 10
-189 36 -500 88 -69 11 -150 26 -180 31 -111 21 -271 50 -530 95 -146 25 -598
106 -1005 180 -1220 220 -1732 293 -2305 325 -515 29 -964 57 -1255 80 -157
12 -454 23 -795 29 -300 6 -581 13 -625 14 -44 2 -217 -4 -385 -14z m438 -321
l-3 -293 -267 -2 -268 -3 0 285 c0 157 3 286 8 286 33 6 255 16 380 17 l152 2
-2 -292z m345 286 l77 -7 0 -288 0 -289 -180 0 -180 0 0 295 0 295 103 0 c57
0 138 -3 180 -6z m645 -14 l72 0 0 -285 0 -285 -287 3 -288 2 -2 289 -2 289
217 -6 c119 -4 250 -7 290 -7z m-1598 -285 l0 -285 -192 2 -193 3 -3 273 -2
272 47 1 c27 1 98 5 158 9 61 3 127 7 148 8 l37 2 0 -285z m1945 266 c66 -6
161 -13 210 -16 50 -3 104 -8 122 -11 l32 -5 -2 -257 -2 -257 -287 -2 -288 -3
0 285 0 286 48 -6 c26 -2 101 -9 167 -14z m758 -52 l237 -13 0 -243 0 -243
-285 0 -285 0 0 261 0 262 48 -6 c26 -3 154 -11 285 -18z m875 -341 l-3 -153
-285 0 -285 0 -1 153 0 152 288 0 289 0 -3 -152z m640 0 l-3 -153 -285 0 -285
0 -1 153 -1 152 289 0 289 0 -3 -152z m580 -25 l-3 -128 -257 -3 -258 -2 0
130 0 130 260 0 261 0 -3 -127z m1862 -445 c-1 -234 -1 -243 -22 -265 -21 -23
-24 -23 -262 -23 l-241 0 3 265 3 265 259 0 260 0 0 -242z m-2770 167 c0 -10
10 -15 30 -15 25 0 30 -4 30 -24 0 -21 -6 -25 -32 -28 -26 -2 -32 -7 -30 -21
3 -17 -3 -15 -47 10 -28 15 -51 31 -51 35 0 7 79 55 93 57 4 1 7 -6 7 -14z
m3205 5 c3 -5 -1 -10 -9 -10 -8 0 -18 5 -21 10 -3 6 1 10 9 10 8 0 18 -4 21
-10z m58 -19 c4 -15 18 -21 71 -26 63 -7 66 -8 51 -25 -25 -28 -65 -34 -80
-13 -11 15 -15 15 -29 4 -9 -7 -16 -25 -16 -39 0 -56 -12 -9 -14 52 -1 64 7
86 17 47z m-34 -33 l0 -43 -17 33 c-14 29 -14 34 -2 42 8 6 16 10 18 10 1 0 2
-19 1 -42z m144 25 c-7 -2 -19 -2 -25 0 -7 3 -2 5 12 5 14 0 19 -2 13 -5z
m257 -42 c96 -17 177 -31 180 -31 3 0 4 -67 2 -148 l-3 -148 -36 -13 c-26 -10
-40 -23 -52 -52 l-16 -39 -90 0 -89 0 22 22 22 23 -120 120 -120 120 38 0 c35
0 37 2 40 33 3 26 -1 34 -20 41 -13 5 -26 7 -30 4 -5 -2 -8 2 -8 10 0 7 11 19
25 25 16 8 28 23 32 43 5 25 10 30 27 25 12 -3 100 -19 196 -35z m-432 -1 c7
-11 11 -20 9 -20 -2 0 -12 9 -22 20 -10 11 -14 20 -9 20 5 0 15 -9 22 -20z
m-4378 -5 c0 -10 10 -15 30 -15 25 0 30 -4 30 -25 0 -21 -5 -25 -30 -25 -20 0
-30 -5 -30 -15 0 -8 -3 -15 -7 -15 -8 0 -93 50 -93 55 0 5 83 55 93 55 4 0 7
-7 7 -15z m2354 0 c-5 -12 2 -15 30 -15 33 0 36 -2 36 -30 0 -28 -3 -30 -35
-30 -24 0 -35 -5 -35 -15 0 -11 -13 -7 -51 16 l-50 32 48 28 c56 32 65 35 57
14z m-4634 -36 c0 -22 5 -32 19 -36 18 -5 18 -8 -11 -55 l-31 -50 -28 49 c-22
38 -25 49 -14 51 10 2 15 16 15 38 0 30 3 34 25 34 21 0 25 -5 25 -31z m6872
-461 l-113 -112 -41 41 -41 41 52 48 c84 76 84 70 -22 179 -52 52 -98 95 -103
95 -5 0 35 -44 89 -98 l97 -97 -60 -60 -60 -59 -42 39 -43 40 39 -42 c39 -42
39 -43 21 -63 l-19 -21 -45 43 -46 43 43 -46 c55 -58 40 -73 -19 -19 l-44 40
43 43 c23 23 42 48 42 55 0 21 -25 13 -55 -18 l-29 -30 -61 57 -60 58 59 -62
c57 -60 69 -86 29 -65 -10 6 -41 34 -69 64 -28 29 -62 62 -75 72 -13 11 15
-19 62 -67 l86 -86 -32 -31 c-17 -17 -35 -27 -40 -23 -4 5 -5 3 -2 -3 3 -6 -8
-25 -26 -42 l-33 -32 -89 90 -90 90 33 31 c33 31 33 31 55 13 l22 -19 -19 23
c-23 26 -14 41 11 21 17 -13 17 -13 4 4 -13 17 -11 22 18 49 l32 30 32 -28 32
-29 -27 31 c-31 34 -36 49 -12 40 9 -3 12 -2 8 5 -3 6 49 66 117 135 l124 124
190 -190 190 -190 -113 -112z m-5962 452 c25 0 30 -4 30 -25 0 -21 -5 -25 -30
-25 -16 0 -33 -7 -38 -16 -8 -15 -14 -13 -56 11 l-48 28 49 28 c40 23 49 26
56 14 4 -8 21 -15 37 -15z m5867 -60 c1 -11 0 -20 -1 -20 -2 0 -11 9 -21 20
-18 19 -17 20 1 20 13 0 20 -7 21 -20z m73 6 c0 -8 -4 -18 -10 -21 -5 -3 -10
3 -10 14 0 12 5 21 10 21 6 0 10 -6 10 -14z m-1447 -201 c31 -53 32 -55 12
-55 -10 0 -15 -10 -15 -30 0 -27 -3 -30 -30 -30 -27 0 -30 3 -30 30 0 20 -5
30 -16 30 -12 0 -9 10 13 50 15 27 30 50 33 50 3 0 17 -20 33 -45z m-4803
-550 l0 -525 -160 0 -160 0 0 525 0 525 160 0 160 0 0 -525z m630 0 l0 -525
-280 0 -280 0 0 525 0 525 280 0 280 0 0 -525z m640 0 l0 -525 -280 0 -280 0
0 525 0 525 280 0 280 0 0 -525z m640 0 l0 -525 -285 0 -285 0 0 525 0 525
285 0 285 0 0 -525z m630 0 l0 -525 -280 0 -280 0 0 525 0 525 280 0 280 0 0
-525z m640 0 l0 -525 -280 0 -280 0 0 525 0 525 280 0 280 0 0 -525z m640 0
l0 -525 -282 3 -283 2 -3 523 -2 522 285 0 285 0 0 -525z m631 488 c0 -29 0
-766 -1 -980 l0 -33 -280 0 -280 0 0 525 0 525 280 0 280 0 1 -37z m2211 -28
l3 -45 -42 0 -42 0 11 30 c9 27 42 60 59 60 4 0 9 -20 11 -45z m-7832 -175 l0
-120 -160 0 c-136 0 -160 -2 -160 -15 0 -13 24 -15 160 -15 l160 0 0 -119 0
-119 -254 0 -255 -1 -5 42 c-3 23 -10 110 -16 192 -6 83 -13 178 -16 213 l-6
62 276 0 276 0 0 -120z m7125 10 l39 -40 -20 -21 -21 -20 -36 40 c-20 23 -40
41 -44 41 -4 0 12 -19 35 -43 56 -57 41 -70 -17 -15 l-46 43 43 -46 43 -45
-21 -19 c-20 -18 -21 -18 -63 21 l-42 39 39 -42 c55 -59 37 -78 -20 -22 l-44
43 62 63 c34 35 65 63 68 63 3 0 24 -18 45 -40z m159 -19 l39 -40 -42 -42 -43
-41 -36 33 -37 34 34 -37 33 -36 -30 -33 c-27 -29 -32 -31 -49 -18 -17 13 -17
13 -4 -4 29 -37 -1 -29 -41 10 -37 38 -40 43 -25 57 8 9 20 16 25 16 6 0 12 6
15 13 3 8 17 0 41 -22 43 -42 49 -35 6 7 -16 17 -30 33 -30 37 0 14 31 36 41
29 7 -4 9 -3 5 4 -6 9 40 69 54 71 3 1 23 -17 44 -38z m-179 -181 c31 -31 37
-43 26 -49 -9 -6 -24 3 -47 29 -33 36 -43 60 -26 60 4 0 26 -18 47 -40z
m-6525 -30 c0 -20 5 -30 15 -30 8 0 15 -3 15 -7 0 -8 -50 -93 -54 -93 -5 0
-56 87 -56 94 0 3 7 6 15 6 10 0 15 10 15 30 0 25 4 30 25 30 21 0 25 -5 25
-30z m7290 -239 c0 -142 -2 -260 -4 -262 -2 -2 -117 -3 -255 -1 l-251 3 0 259
0 260 255 0 255 0 0 -259z m-1050 -51 l0 -160 -275 0 -275 0 0 160 0 160 275
0 275 0 0 -160z m-6190 -45 l0 -65 -230 0 -230 0 0 65 0 65 230 0 230 0 0 -65z
m5382 -64 c25 -45 26 -49 9 -54 -14 -3 -17 -11 -14 -31 5 -24 2 -26 -26 -26
-28 0 -31 3 -31 30 0 20 -5 30 -15 30 -8 0 -15 2 -15 4 0 9 53 96 58 96 4 0
19 -22 34 -49z m-5414 -473 c-20 -13 -87 -48 -93 -48 -3 0 -4 6 -2 13 1 7 -11
13 -30 15 -27 3 -33 7 -33 28 0 20 5 24 30 24 18 0 33 6 36 15 5 13 14 11 55
-12 35 -19 46 -29 37 -35z m2236 6 c25 -14 46 -29 46 -32 0 -4 -23 -20 -50
-35 -48 -27 -50 -27 -50 -8 0 17 -6 21 -30 21 -25 0 -30 4 -30 25 0 21 5 25
30 25 20 0 30 5 30 15 0 19 -1 19 54 -11z m-1430 -21 l45 -27 -46 -29 c-40
-25 -47 -27 -55 -13 -5 9 -22 16 -38 16 -25 0 -30 4 -30 25 0 21 5 25 30 25
18 0 33 6 36 15 8 19 5 20 58 -12z m2642 -9 l45 -27 -48 -27 c-37 -21 -49 -25
-51 -14 -2 9 -17 14 -38 14 -31 0 -34 2 -34 30 0 27 3 30 25 26 14 -3 31 1 38
9 16 18 11 19 63 -11z m1134 -38 c0 -22 5 -36 15 -38 11 -2 9 -13 -14 -51
l-28 -49 -28 48 c-24 42 -26 48 -11 56 9 5 16 22 16 38 0 25 4 30 25 30 22 0
25 -4 25 -34z m379 -107 c15 -27 19 -44 12 -48 -6 -4 -11 -21 -13 -39 -2 -28
-6 -32 -29 -32 -24 0 -28 5 -31 33 -2 19 -8 31 -15 30 -7 -2 -13 -1 -13 1 0 9
53 96 58 96 4 0 18 -19 31 -41z m-5419 -384 l0 -325 -268 0 -268 0 -22 308
c-13 169 -22 315 -22 325 0 16 21 17 290 17 l290 0 0 -325z m580 0 l0 -325
-257 0 -258 0 3 325 3 325 254 0 255 0 0 -325z m6580 0 l0 -325 -260 0 -260 0
0 325 0 325 260 0 260 0 0 -325z m490 0 l0 -325 -215 0 -215 0 0 325 0 325
215 0 215 0 0 -325z m-6620 -65 l0 -260 -160 0 -160 0 0 260 0 260 160 0 160
0 0 -260z m632 0 l3 -260 -282 0 -283 0 0 260 0 260 280 0 279 0 3 -260z m638
0 l0 -260 -280 0 -280 0 0 260 0 260 280 0 280 0 0 -260z m640 0 l0 -260 -285
0 -285 0 0 260 0 260 285 0 285 0 0 -260z m632 0 l3 -260 -282 0 -283 0 0 260
0 260 280 0 279 0 3 -260z m638 0 l0 -260 -280 0 -280 0 0 260 0 260 280 0
280 0 0 -260z m640 0 l0 -260 -285 0 -286 0 2 253 c1 138 3 255 6 260 2 4 130
7 284 7 l279 0 0 -260z m1270 0 l0 -260 -280 0 -280 0 0 260 0 260 280 0 280
0 0 -260z m392 0 l3 -260 -162 0 -163 0 2 253 c0 138 3 255 5 260 2 4 74 7
158 7 l154 0 3 -260z m-1097 4 c24 -41 26 -48 12 -56 -11 -5 -15 -19 -12 -38
3 -27 1 -30 -25 -30 -25 0 -29 4 -32 33 -2 19 -8 31 -15 30 -7 -2 -13 -1 -13
2 0 5 54 105 57 105 0 0 13 -21 28 -46z m-365 6 c0 -20 5 -30 15 -30 8 0 15
-3 15 -6 0 -7 -51 -94 -56 -94 -4 0 -54 85 -54 93 0 4 7 7 15 7 10 0 15 10 15
30 0 25 4 30 25 30 21 0 25 -5 25 -30z"/>
<path d="M994 4639 c-10 -18 -18 -276 -10 -353 l8 -67 76 3 77 3 3 178 c1 97
-1 192 -6 210 -8 32 -9 32 -74 35 -43 2 -69 -1 -74 -9z"/>
<path d="M4005 4371 l-50 -6 -3 -69 c-2 -38 1 -73 5 -77 13 -13 220 -22 326
-14 l97 7 0 78 0 77 -61 7 c-71 7 -241 6 -314 -3z"/>
<path d="M7760 3595 c47 -47 87 -85 90 -85 2 0 -33 38 -80 85 -47 47 -87 85
-90 85 -2 0 33 -38 80 -85z"/>
<path d="M7835 3650 c3 -5 8 -10 11 -10 2 0 4 5 4 10 0 6 -5 10 -11 10 -5 0
-7 -4 -4 -10z"/>
<path d="M7665 3462 c38 -39 71 -72 74 -72 10 0 -53 65 -110 115 -19 16 -3 -3
36 -43z"/>
<path d="M7800 3506 c0 -2 8 -10 18 -17 15 -13 16 -12 3 4 -13 16 -21 21 -21
13z"/>
<path d="M7580 3415 c47 -47 87 -85 90 -85 2 0 -33 38 -80 85 -47 47 -87 85
-90 85 -2 0 33 -38 80 -85z"/>
<path d="M7645 3440 c27 -27 51 -50 54 -50 3 0 -17 23 -44 50 -27 28 -51 50
-54 50 -3 0 17 -22 44 -50z"/>
<path d="M7700 3477 c0 -2 15 -16 33 -33 l32 -29 -29 33 c-28 30 -36 37 -36
29z"/>
<path d="M7590 3446 c0 -2 8 -10 18 -17 15 -13 16 -12 3 4 -13 16 -21 21 -21
13z"/>
<path d="M2254 3335 c0 -137 2 -195 3 -128 2 67 2 179 0 250 -1 70 -3 16 -3
-122z"/>
<path d="M2016 3513 c-8 -49 -8 -321 0 -362 l7 -31 72 0 c67 0 73 2 79 23 8
29 8 321 0 370 l-7 37 -72 0 -72 0 -7 -37z"/>
<path d="M2254 2800 c0 -140 2 -198 3 -127 2 70 2 184 0 255 -1 70 -3 12 -3
-128z"/>
<path d="M2885 3070 c-3 -5 -1 -10 4 -10 6 0 11 5 11 10 0 6 -2 10 -4 10 -3 0
-8 -4 -11 -10z"/>
<path d="M2964 2978 c-9 -53 -9 -338 1 -367 6 -19 14 -21 80 -21 l73 0 8 77
c7 84 0 324 -10 342 -4 6 -37 11 -76 11 l-68 0 -8 -42z"/>
<path d="M3304 3508 c-9 -52 -8 -316 1 -358 l7 -31 71 3 72 3 7 40 c9 51 10
263 2 333 l-7 52 -73 0 -72 0 -8 -42z"/>
<path d="M3586 3498 c-8 -69 -8 -262 0 -322 l7 -46 72 0 72 0 7 53 c8 68 8
227 0 306 l-7 61 -72 0 -72 0 -7 -52z"/>
<path d="M3520 3070 c0 -5 5 -10 10 -10 6 0 10 5 10 10 0 6 -4 10 -10 10 -5 0
-10 -4 -10 -10z"/>
<path d="M3593 3006 c-10 -15 -16 -280 -9 -349 l8 -67 73 0 73 0 7 87 c7 83 0
321 -9 331 -9 8 -138 7 -143 -2z"/>
<path d="M4790 3070 c0 -5 5 -10 10 -10 6 0 10 5 10 10 0 6 -4 10 -10 10 -5 0
-10 -4 -10 -10z"/>
<path d="M5215 3463 c-8 -93 -1 -315 10 -332 8 -14 142 -14 150 -1 9 15 10
348 1 388 l-8 32 -73 0 -73 0 -7 -87z"/>
<path d="M5505 3539 c-11 -17 -17 -278 -8 -349 l8 -65 75 0 75 0 8 65 c8 72 2
315 -8 343 -6 14 -20 17 -75 17 -38 0 -72 -5 -75 -11z"/>
<path d="M5563 3012 c-49 -3 -52 -5 -59 -35 -9 -39 -8 -337 1 -366 6 -19 14
-21 75 -21 61 0 69 2 75 21 9 29 10 303 1 356 -8 46 -15 50 -93 45z"/>
<path d="M6065 3070 c-3 -5 -1 -10 4 -10 6 0 11 5 11 10 0 6 -2 10 -4 10 -3 0
-8 -4 -11 -10z"/>
<path d="M475 3340 c3 -5 8 -10 11 -10 2 0 4 5 4 10 0 6 -5 10 -11 10 -5 0 -7
-4 -4 -10z"/>
<path d="M500 3340 c0 -5 5 -10 10 -10 6 0 10 5 10 10 0 6 -4 10 -10 10 -5 0
-10 -4 -10 -10z"/>
<path d="M630 3339 c0 -5 5 -7 10 -4 6 3 10 8 10 11 0 2 -4 4 -10 4 -5 0 -10
-5 -10 -11z"/>
<path d="M660 3340 c0 -5 5 -10 10 -10 6 0 10 5 10 10 0 6 -4 10 -10 10 -5 0
-10 -4 -10 -10z"/>
<path d="M695 3340 c3 -5 8 -10 11 -10 2 0 4 5 4 10 0 6 -5 10 -11 10 -5 0 -7
-4 -4 -10z"/>
<path d="M541 3064 c0 -11 3 -14 6 -6 3 7 2 16 -1 19 -3 4 -6 -2 -5 -13z"/>
<path d="M440 3040 c0 -5 5 -10 11 -10 5 0 7 5 4 10 -3 6 -8 10 -11 10 -2 0
-4 -4 -4 -10z"/>
<path d="M560 3035 c0 -8 -4 -15 -10 -15 -5 0 -10 -5 -10 -12 0 -6 9 -3 20 7
22 20 26 35 10 35 -5 0 -10 -7 -10 -15z"/>
<path d="M408 3033 c7 -3 16 -2 19 1 4 3 -2 6 -13 5 -11 0 -14 -3 -6 -6z"/>
<path d="M7815 3360 c10 -11 20 -20 23 -20 3 0 -3 9 -13 20 -10 11 -20 20 -23
20 -3 0 3 -9 13 -20z"/>
<path d="M7960 3346 c0 -2 8 -10 18 -17 15 -13 16 -12 3 4 -13 16 -21 21 -21
13z"/>
<path d="M7940 3326 c0 -2 8 -10 18 -17 15 -13 16 -12 3 4 -13 16 -21 21 -21
13z"/>
<path d="M7885 3200 c10 -11 20 -20 23 -20 3 0 -3 9 -13 20 -10 11 -20 20 -23
20 -3 0 3 -9 13 -20z"/>
<path d="M8405 3100 c-10 -16 -16 -280 -8 -350 l8 -64 63 -1 c35 0 69 3 75 7
14 8 22 238 12 343 l-7 75 -68 0 c-38 0 -72 -4 -75 -10z"/>
<path d="M914 2826 c-3 -8 -4 -25 -2 -38 2 -19 9 -23 38 -24 26 -1 28 -1 8 3
-34 5 -36 18 -5 28 l22 8 -22 4 c-13 2 -23 8 -23 13 0 5 10 11 23 13 19 4 18
4 -6 6 -16 0 -30 -5 -33 -13z"/>
<path d="M988 2810 c-3 -16 -1 -35 4 -42 4 -8 8 4 8 30 0 49 -6 55 -12 12z"/>
<path d="M1220 2833 c0 -5 -11 -13 -25 -20 -14 -6 -25 -7 -25 -2 0 4 -16 8
-35 7 -25 -1 -35 -6 -35 -17 -1 -13 -3 -12 -15 3 -16 21 -18 15 -9 -21 8 -28
21 -29 29 -3 3 11 10 20 15 20 4 0 6 -9 3 -20 -4 -16 0 -20 21 -20 18 0 26 5
26 18 1 16 1 16 11 0 5 -10 19 -18 29 -18 17 0 20 7 20 40 0 22 -2 40 -5 40
-3 0 -5 -3 -5 -7z m-5 -53 c-5 -8 -11 -8 -17 -2 -6 6 -7 16 -3 22 5 8 11 8 17
2 6 -6 7 -16 3 -22z"/>
<path d="M1014 2806 c-9 -24 3 -46 26 -46 17 0 21 5 18 27 -3 31 -34 44 -44
19z"/>
<path d="M1244 2805 c-4 -8 -4 -22 0 -30 7 -18 42 -20 49 -2 4 10 6 10 6 0 2
-25 19 -12 23 17 5 30 -15 44 -25 18 -4 -10 -6 -10 -6 0 -1 17 -40 15 -47 -3z
m36 -21 c0 -16 -16 -19 -25 -4 -8 13 4 32 16 25 5 -4 9 -13 9 -21z"/>
<path d="M405 1860 c-11 -17 -18 -243 -10 -332 l7 -88 78 0 78 0 7 107 c7 101
2 248 -11 299 -6 22 -11 24 -74 24 -38 0 -72 -4 -75 -10z"/>
<path d="M7826 1848 c-8 -69 -8 -262 0 -322 l7 -46 72 0 73 0 5 43 c8 60 2
351 -7 365 -4 7 -33 12 -75 12 l-68 0 -7 -52z"/>
<path d="M2684 1818 c-9 -52 -8 -328 1 -357 6 -19 14 -21 75 -21 61 0 69 2 75
21 9 29 10 305 1 357 l-8 42 -68 0 -68 0 -8 -42z"/>
<path d="M4161 1874 c0 -11 3 -14 6 -6 3 7 2 16 -1 19 -3 4 -6 -2 -5 -13z"/>
<path d="M3943 1813 c-10 -48 -10 -328 0 -365 7 -27 10 -28 77 -28 38 0 72 4
75 10 11 17 18 243 10 333 l-7 87 -73 0 -74 0 -8 -37z"/>
<path d="M5225 1823 c-10 -41 -15 -237 -8 -320 l6 -73 73 0 73 0 6 44 c10 63
10 250 0 319 l-7 57 -68 0 c-66 0 -68 -1 -75 -27z"/>
<path d="M6505 1840 c-10 -17 -17 -281 -8 -350 l8 -65 75 0 75 0 8 65 c9 69 3
314 -9 343 -5 14 -19 17 -74 17 -38 0 -72 -4 -75 -10z"/>
<path d="M6786 1789 c-8 -78 -7 -260 2 -319 l7 -45 75 0 75 0 8 65 c9 69 2
333 -8 350 -3 6 -39 10 -79 10 l-73 0 -7 -61z"/>
<path d="M4480 4741 c0 -13 -6 -21 -17 -21 -13 0 -14 -3 -5 -12 8 -8 9 -15 1
-25 -9 -10 -7 -13 10 -13 13 0 21 -6 21 -16 0 -13 3 -14 15 -4 8 6 19 9 25 5
5 -3 10 1 10 9 0 9 7 16 15 16 8 0 15 5 15 10 0 6 -5 10 -11 10 -8 0 -8 5 1
15 12 15 11 16 -10 19 -6 0 -15 7 -19 15 -6 9 -10 10 -16 2 -5 -9 -10 -9 -21
0 -11 9 -14 7 -14 -10z"/>
<path d="M313 4703 c9 -2 25 -2 35 0 9 3 1 5 -18 5 -19 0 -27 -2 -17 -5z"/>
<path d="M193 4693 c9 -2 25 -2 35 0 9 3 1 5 -18 5 -19 0 -27 -2 -17 -5z"/>
<path d="M330 4575 l-73 -86 -26 23 c-14 12 -46 41 -71 63 -25 22 -15 9 23
-29 37 -38 64 -72 60 -75 -5 -3 -32 -35 -62 -71 l-53 -65 65 70 66 70 75 -75
c42 -41 76 -71 76 -66 0 4 -34 39 -75 78 l-75 70 57 67 c31 36 66 76 77 89 11
12 17 22 14 22 -3 0 -38 -38 -78 -85z"/>
<path d="M5736 4572 c-4 -7 -16 -10 -27 -7 -13 4 -19 2 -19 -9 0 -9 -4 -16 -8
-16 -5 0 -9 -13 -9 -30 0 -17 6 -30 13 -30 7 0 14 -6 17 -12 3 -10 7 -10 19
-1 11 10 17 10 26 1 9 -9 12 -8 12 5 0 9 7 17 15 17 17 0 20 16 5 25 -5 3 -7
12 -3 20 3 9 -1 15 -10 15 -9 0 -17 8 -19 18 -3 13 -5 14 -12 4z"/>
<path d="M6161 4402 c-10 -18 -9 -22 3 -22 8 0 21 -3 30 -6 11 -4 16 0 16 12
0 16 2 17 10 4 7 -11 30 -15 89 -16 67 -1 80 2 84 16 3 13 -2 18 -19 18 -14 0
-21 -5 -18 -12 3 -6 -1 -3 -9 6 -8 10 -17 15 -20 12 -9 -10 -57 -12 -57 -2 0
5 -7 5 -16 0 -9 -5 -25 -7 -35 -5 -12 3 -19 0 -19 -8 0 -8 -5 -6 -14 6 -13 18
-14 18 -25 -3z"/>
<path d="M6430 4411 c0 -5 -3 -16 -6 -24 -8 -22 68 -19 78 3 5 12 7 12 7 -3 1
-22 52 -20 63 3 6 13 7 13 7 -1 1 -13 13 -16 61 -16 50 0 60 3 58 16 -2 9 -11
15 -21 15 -9 -1 -17 2 -17 8 0 5 -4 7 -10 3 -5 -3 -6 -13 -3 -23 6 -16 6 -16
-11 1 -20 20 -36 22 -36 5 0 -9 -3 -9 -9 1 -5 8 -16 11 -25 8 -8 -3 -18 -2
-21 3 -3 5 -11 7 -18 5 -25 -10 -77 -12 -77 -4 0 5 -4 9 -10 9 -5 0 -10 -4
-10 -9z"/>
<path d="M7140 4301 c0 -13 -6 -21 -17 -21 -13 0 -14 -3 -5 -12 8 -8 9 -15 1
-25 -9 -10 -7 -13 10 -13 13 0 21 -6 21 -16 0 -13 3 -14 14 -5 7 6 21 9 30 5
11 -4 16 -1 16 10 0 9 7 16 16 16 13 0 14 3 4 15 -6 8 -9 19 -5 25 3 5 -1 10
-9 10 -9 0 -16 7 -16 15 0 17 -16 20 -25 5 -5 -8 -11 -7 -21 1 -11 9 -14 7
-14 -10z"/>
<path d="M7670 4202 c0 -15 -5 -20 -15 -16 -17 7 -21 -11 -5 -21 8 -5 7 -11
-1 -21 -9 -11 -7 -14 10 -14 13 0 21 -6 21 -16 0 -13 3 -14 15 -4 8 6 18 9 23
6 14 -8 39 29 37 55 -1 14 -9 25 -18 27 -10 2 -15 8 -12 13 4 5 2 9 -4 9 -5 0
-13 -5 -16 -10 -5 -8 -11 -7 -21 1 -11 9 -14 7 -14 -9z"/>
<path d="M8206 4132 c-4 -7 -16 -10 -27 -7 -13 4 -19 2 -19 -9 0 -9 -4 -16 -9
-16 -5 0 -8 -12 -7 -27 2 -16 6 -26 9 -23 3 3 12 -4 20 -14 10 -14 16 -16 21
-7 6 9 11 9 21 1 9 -8 14 -5 18 11 3 12 10 18 16 14 6 -3 11 -2 11 4 0 5 -4
12 -10 16 -5 3 -7 12 -3 20 3 9 -1 15 -10 15 -9 0 -17 8 -19 18 -3 13 -5 14
-12 4z"/>
</g>
</svg>
